<svg width="16" height="16" viewBox="0 0 16 16" fill="none" xmlns="http://www.w3.org/2000/svg">
<g clip-path="url(#clip0_152_4477)">
<path d="M13.0788 15.2772L13.0668 15.276C8.91686 14.8251 5.0655 12.4518 2.82438 8.92657C1.6417 7.10008 0.90567 5.02078 0.675887 2.85697L0.674865 2.84657C0.649875 2.57004 0.68274 2.29133 0.771365 2.02819C0.859991 1.76506 1.00244 1.52326 1.18963 1.31819C1.37683 1.11312 1.60467 0.949278 1.85866 0.837091C2.11264 0.724903 2.38721 0.66683 2.66486 0.666569L4.66254 0.666569C5.14657 0.662677 5.61564 0.834464 5.98269 1.15013C6.35066 1.46659 6.59101 1.90605 6.65893 2.3866L6.6598 2.39273C6.7376 2.98268 6.88185 3.56194 7.08983 4.11947C7.22411 4.47717 7.25313 4.86586 7.17343 5.23954C7.09368 5.61351 6.90839 5.95677 6.63953 6.22866L6.6369 6.23131L6.15884 6.70937C6.94274 7.93913 7.98626 8.98266 9.21603 9.76656L9.69409 9.2885L9.69673 9.28587C9.96862 9.017 10.3119 8.83172 10.6859 8.75196C11.0595 8.67227 11.4482 8.70128 11.8059 8.83556C12.3635 9.04354 12.9427 9.18782 13.5327 9.26563L13.5386 9.26641C14.0244 9.33494 14.468 9.57964 14.7852 9.95393C15.1003 10.3259 15.2687 10.8001 15.2588 11.2874V13.2799C15.2588 13.2799 15.3149 14.0184 14.6667 14.6665C13.9204 15.4129 13.0788 15.2772 13.0788 15.2772Z" fill="#3773FE"/>
</g>
<defs>
<clipPath id="clip0_152_4477">
<rect width="16" height="16" fill="white"/>
</clipPath>
</defs>
</svg>
