<svg width="36" height="36" viewBox="0 0 36 36" fill="none" xmlns="http://www.w3.org/2000/svg">
<rect width="36" height="36" rx="8" fill="#3773FE" fill-opacity="0.08"/>
<path fill-rule="evenodd" clip-rule="evenodd" d="M18 27.1668C18 27.1668 25.5 22.1668 25.5 16.3335C25.5 14.3444 24.7098 12.4367 23.3033 11.0302C21.8968 9.62367 19.9891 8.8335 18 8.8335C16.0109 8.8335 14.1032 9.62367 12.6967 11.0302C11.2902 12.4367 10.5 14.3444 10.5 16.3335C10.5 22.1668 18 27.1668 18 27.1668ZM20.5 16.3335C20.5 17.7142 19.3807 18.8335 18 18.8335C16.6193 18.8335 15.5 17.7142 15.5 16.3335C15.5 14.9528 16.6193 13.8335 18 13.8335C19.3807 13.8335 20.5 14.9528 20.5 16.3335Z" fill="#3773FE"/>
</svg>
