<svg width="36" height="36" viewBox="0 0 36 36" fill="none" xmlns="http://www.w3.org/2000/svg">
<rect width="36" height="36" rx="8" fill="#3773FE" fill-opacity="0.08"/>
<g clip-path="url(#clip0_152_4533)">
<path d="M24.3483 27.0969L24.3333 27.0954C19.1459 26.5317 14.3317 23.5651 11.5303 19.1586C10.0519 16.8755 9.1319 14.2763 8.84468 11.5716L8.8434 11.5586C8.81216 11.2129 8.85324 10.8645 8.96402 10.5356C9.07481 10.2067 9.25286 9.90444 9.48686 9.6481C9.72085 9.39177 10.0057 9.18696 10.3231 9.04673C10.6406 8.9065 10.9838 8.8339 11.3309 8.83358L13.828 8.83358C14.433 8.82871 15.0194 9.04345 15.4782 9.43803C15.9381 9.8336 16.2386 10.3829 16.3235 10.9836L16.3246 10.9913C16.4218 11.7287 16.6021 12.4528 16.8621 13.1497C17.03 13.5968 17.0662 14.0827 16.9666 14.5498C16.8669 15.0173 16.6353 15.4463 16.2992 15.7862L16.2959 15.7895L15.6984 16.3871C16.6782 17.9243 17.9826 19.2287 19.5198 20.2086L20.1174 19.611L20.1207 19.6077C20.4606 19.2716 20.8897 19.04 21.3571 18.9403C21.8242 18.8407 22.3101 18.877 22.7572 19.0448C23.4541 19.3048 24.1782 19.4851 24.9156 19.5824L24.9231 19.5834C25.5303 19.669 26.0848 19.9749 26.4813 20.4428C26.8752 20.9078 27.0857 21.5005 27.0733 22.1096V24.6002C27.0733 24.6002 27.1434 25.5234 26.3333 26.3335C25.4003 27.2665 24.3483 27.0969 24.3483 27.0969Z" fill="#3773FE"/>
</g>
<defs>
<clipPath id="clip0_152_4533">
<rect width="20" height="20" fill="white" transform="translate(8 8)"/>
</clipPath>
</defs>
</svg>
